<svg width="152" height="149" viewBox="0 0 152 149" fill="none" xmlns="http://www.w3.org/2000/svg">
<path fill-rule="evenodd" clip-rule="evenodd" d="M62.075 1.024C23.875 9.066 -2.05701 42.252 0.360993 80C1.12499 91.915 3.05499 99.327 8.04499 109.5C15.332 124.356 27.315 136.459 41.848 143.64C45.915 145.649 50.876 147.34 52.872 147.397L56.5 147.5L56.784 139L57.068 130.5H49.284C39.179 130.5 35.732 128.58 31.249 120.454C29.443 117.179 26.173 112.913 23.983 110.973C21.792 109.033 20 107.12 20 106.723C20 106.325 21.765 106 23.923 106C28.375 106 32.566 108.944 35.982 114.471C38.832 119.083 45.304 122.14 50.515 121.336C55.782 120.524 57.999 119.304 58.004 117.215C58.006 116.272 58.865 114.093 59.914 112.374L61.82 109.247L57.55 108.662C45.5 107.01 35.875 100.599 31.37 91.224C29.113 86.527 28.544 83.77 28.198 75.855C27.739 65.365 28.771 60.48 32.506 55.471C34.498 52.799 34.705 51.608 34.258 45.363C33.949 41.038 34.234 36.822 34.99 34.529C36.166 30.968 36.407 30.804 39.686 31.337C41.588 31.645 46.415 33.514 50.413 35.489C57.131 38.809 58.017 39.004 62.091 38.065C67.783 36.753 84.229 36.756 89.93 38.07C94.037 39.017 94.876 38.83 101.43 35.514C105.319 33.547 110.136 31.676 112.135 31.356C115.619 30.8 115.822 30.93 116.996 34.487C117.689 36.587 118.037 41.072 117.799 44.819C117.416 50.834 117.689 52.037 120.786 57.97C124.135 64.383 124.189 64.687 123.839 75C123.532 84.045 123.094 86.293 120.68 91.224C116.081 100.619 106.465 107.015 94.466 108.66L90.211 109.243L92.355 112.871C94.217 116.021 94.566 118.503 95 131.67C95.275 140.014 95.852 147.191 96.282 147.619C98.524 149.85 114.119 142.717 123.897 134.988C135.125 126.112 145.67 109.816 149.447 95.5C151.965 85.957 152.496 71.808 150.692 62.321C145.259 33.751 125.72 11.963 97.5 3.008C89.601 0.502 69.819 -0.606 62.075 1.024Z" fill="white"/>
</svg>
