<svg width="154" height="117" viewBox="0 0 154 117" fill="none" xmlns="http://www.w3.org/2000/svg">
<path fill-rule="evenodd" clip-rule="evenodd" d="M11.5 2.41701C7.773 4.08101 3.469 8.59601 2.064 12.315C0.601999 16.183 0.601999 101.817 2.064 105.685C3.511 109.516 7.826 113.958 11.718 115.623C14.335 116.743 26.509 117 76.903 117C118.254 117 139.806 116.646 141.685 115.936C145.516 114.489 149.958 110.174 151.623 106.282C153.641 101.566 153.641 16.434 151.623 11.718C149.958 7.82601 145.516 3.51101 141.685 2.06401C137.163 0.355008 15.379 0.686009 11.5 2.41701ZM139.402 9.84201C139.688 10.304 138.477 12.04 136.711 13.697C129.553 20.417 77.975 63 76.994 63C75.586 63 15 11.146 15 9.94101C15 8.75401 138.669 8.65501 139.402 9.84201ZM51.5 53.556C51.5 54.75 11.36 102.249 9.857 102.833C9.386 103.017 9 83.548 9 59.569V15.971L30.25 34.191C41.938 44.212 51.5 52.926 51.5 53.556ZM145 60.559C145 87.633 144.649 102.901 144.035 102.522C143.505 102.194 133.769 91.107 122.4 77.884C104.836 57.456 101.938 53.636 103.115 52.473C106.469 49.157 143.575 18.116 144.25 18.061C144.662 18.027 145 37.152 145 60.559ZM67.335 65.995C71.826 69.843 76.12 72.993 76.878 72.995C77.636 72.998 82.066 69.791 86.724 65.869L95.192 58.738L97.464 61.119C103.787 67.746 138.131 108.202 137.754 108.579C137.514 108.819 110.002 108.9 76.615 108.758L15.913 108.5L37.088 83.75C48.735 70.137 58.468 59 58.717 59C58.966 59 62.844 62.148 67.335 65.995Z" fill="white"/>
</svg>
