<svg width="33" height="21" viewBox="0 0 33 21" fill="none" xmlns="http://www.w3.org/2000/svg">
<path d="M8.4588 14.3281H6.59233C6.55824 14.0866 6.48863 13.8722 6.38352 13.6847C6.27841 13.4943 6.14346 13.3324 5.97869 13.1989C5.81392 13.0653 5.62358 12.9631 5.40767 12.892C5.1946 12.821 4.96306 12.7855 4.71306 12.7855C4.26136 12.7855 3.86789 12.8977 3.53267 13.1222C3.19744 13.3437 2.9375 13.6676 2.75284 14.0937C2.56818 14.517 2.47585 15.0312 2.47585 15.6364C2.47585 16.2585 2.56818 16.7812 2.75284 17.2045C2.94034 17.6278 3.2017 17.9474 3.53693 18.1633C3.87216 18.3793 4.25994 18.4872 4.70028 18.4872C4.94744 18.4872 5.17613 18.4545 5.38636 18.3892C5.59943 18.3239 5.78835 18.2287 5.95312 18.1037C6.11789 17.9758 6.25426 17.821 6.36221 17.6392C6.47301 17.4574 6.54971 17.25 6.59233 17.017L8.4588 17.0256C8.41051 17.4261 8.28977 17.8125 8.09659 18.1847C7.90625 18.554 7.64914 18.8849 7.32528 19.1775C7.00426 19.4673 6.62074 19.6974 6.17471 19.8679C5.73153 20.0355 5.23011 20.1193 4.67045 20.1193C3.89204 20.1193 3.19602 19.9432 2.58238 19.5909C1.97159 19.2386 1.48863 18.7287 1.13352 18.0611C0.781247 17.3935 0.60511 16.5852 0.60511 15.6364C0.60511 14.6847 0.784087 13.875 1.14204 13.2074C1.5 12.5398 1.98579 12.0312 2.59943 11.6818C3.21306 11.3295 3.90341 11.1534 4.67045 11.1534C5.17613 11.1534 5.64488 11.2244 6.0767 11.3665C6.51136 11.5085 6.8963 11.7159 7.23153 11.9886C7.56676 12.2585 7.83949 12.5895 8.04971 12.9815C8.26278 13.3736 8.39914 13.8224 8.4588 14.3281Z" fill="white"/>
<path d="M9.78196 20V11.2727H11.6271V14.8736H15.3729V11.2727H17.2138V20H15.3729V16.3949H11.6271V20H9.78196Z" fill="white"/>
<path d="M26.755 15.6364C26.755 16.5881 26.5746 17.3977 26.2138 18.0653C25.8558 18.7329 25.3672 19.2429 24.7479 19.5952C24.1314 19.9446 23.4382 20.1193 22.6683 20.1193C21.8928 20.1193 21.1967 19.9432 20.5803 19.5909C19.9638 19.2386 19.4766 18.7287 19.1186 18.0611C18.7607 17.3935 18.5817 16.5852 18.5817 15.6364C18.5817 14.6847 18.7607 13.875 19.1186 13.2074C19.4766 12.5398 19.9638 12.0312 20.5803 11.6818C21.1967 11.3295 21.8928 11.1534 22.6683 11.1534C23.4382 11.1534 24.1314 11.3295 24.7479 11.6818C25.3672 12.0312 25.8558 12.5398 26.2138 13.2074C26.5746 13.875 26.755 14.6847 26.755 15.6364ZM24.8842 15.6364C24.8842 15.0199 24.7919 14.5 24.6072 14.0767C24.4254 13.6534 24.1683 13.3324 23.8359 13.1136C23.5035 12.8949 23.1143 12.7855 22.6683 12.7855C22.2223 12.7855 21.8331 12.8949 21.5007 13.1136C21.1683 13.3324 20.9098 13.6534 20.7251 14.0767C20.5433 14.5 20.4524 15.0199 20.4524 15.6364C20.4524 16.2528 20.5433 16.7727 20.7251 17.196C20.9098 17.6193 21.1683 17.9403 21.5007 18.1591C21.8331 18.3778 22.2223 18.4872 22.6683 18.4872C23.1143 18.4872 23.5035 18.3778 23.8359 18.1591C24.1683 17.9403 24.4254 17.6193 24.6072 17.196C24.7919 16.7727 24.8842 16.2528 24.8842 15.6364Z" fill="white"/>
<path d="M3.85227 8.99999H0.758519V0.27272H3.87784C4.75568 0.27272 5.51136 0.447436 6.14488 0.796868C6.77841 1.14346 7.26562 1.64204 7.60653 2.29261C7.95028 2.94318 8.12216 3.72158 8.12216 4.62783C8.12216 5.53693 7.95028 6.31818 7.60653 6.97158C7.26562 7.62499 6.77557 8.12641 6.13636 8.47585C5.5 8.82528 4.73863 8.99999 3.85227 8.99999ZM2.60369 7.41903H3.77556C4.32102 7.41903 4.77983 7.32244 5.15199 7.12925C5.52699 6.93323 5.80824 6.63068 5.99574 6.22158C6.18608 5.80965 6.28125 5.2784 6.28125 4.62783C6.28125 3.98295 6.18608 3.45596 5.99574 3.04687C5.80824 2.63778 5.52841 2.33664 5.15625 2.14346C4.78409 1.95028 4.32528 1.85369 3.77983 1.85369H2.60369V7.41903Z" fill="white"/>
<path d="M9.48899 8.99999V0.27272H15.3697V1.79403H11.3342V3.87357H15.0671V5.39488H11.3342V7.47869H15.3867V8.99999H9.48899Z" fill="white"/>
<path d="M18.3409 8.99999H16.3636L19.3764 0.27272H21.7543L24.7628 8.99999H22.7855L20.5994 2.26704H20.5312L18.3409 8.99999ZM18.2173 5.5696H22.8878V7.00994H18.2173V5.5696Z" fill="white"/>
<path d="M25.8132 8.99999V0.27272H29.2564C29.9155 0.27272 30.478 0.390618 30.9439 0.626414C31.4126 0.859368 31.7692 1.19033 32.0135 1.61931C32.2607 2.04545 32.3842 2.54687 32.3842 3.12357C32.3842 3.70312 32.2592 4.2017 32.0092 4.61931C31.7592 5.03408 31.397 5.35227 30.9226 5.57386C30.451 5.79545 29.88 5.90624 29.2095 5.90624H26.9041V4.42329H28.9112C29.2635 4.42329 29.5561 4.37499 29.7891 4.2784C30.022 4.18181 30.1953 4.03693 30.3089 3.84374C30.4254 3.65056 30.4837 3.4105 30.4837 3.12357C30.4837 2.8338 30.4254 2.58948 30.3089 2.39062C30.1953 2.19175 30.0206 2.04119 29.7848 1.93891C29.5518 1.8338 29.2578 1.78124 28.9027 1.78124H27.6584V8.99999H25.8132ZM30.5263 5.0284L32.6953 8.99999H30.6584L28.5362 5.0284H30.5263Z" fill="white"/>
<path d="M30.0831 13.1293C29.755 13.1293 29.4732 13.0133 29.2379 12.7812C29.0059 12.5459 28.8899 12.2642 28.8899 11.9361C28.8899 11.6113 29.0059 11.3329 29.2379 11.1008C29.4732 10.8688 29.755 10.7528 30.0831 10.7528C30.4013 10.7528 30.6797 10.8688 30.9183 11.1008C31.157 11.3329 31.2763 11.6113 31.2763 11.9361C31.2763 12.1548 31.2199 12.3553 31.1072 12.5376C30.9979 12.7166 30.8537 12.8608 30.6747 12.9702C30.4957 13.0762 30.2985 13.1293 30.0831 13.1293Z" fill="white"/>
</svg>
