<svg width="152" height="152" viewBox="0 0 152 152" fill="none" xmlns="http://www.w3.org/2000/svg">
<path fill-rule="evenodd" clip-rule="evenodd" d="M31 1.577C15.784 5.72 4.204 18.091 0.967997 33.662C0.274997 36.996 0.00399718 53.109 0.201997 79.162C0.501997 118.393 0.571997 119.651 2.769 125C7.398 136.269 15.72 144.591 27 149.236C32.425 151.469 33.093 151.5 76 151.5C118.907 151.5 119.575 151.469 125 149.236C136.277 144.593 144.593 136.277 149.236 125C151.466 119.582 151.5 118.868 151.5 77C151.5 29.715 151.426 29.064 144.923 19.002C140.397 12 133.08 5.982 125.252 2.826C119.591 0.543005 118.84 0.503005 78 0.293005C43.768 0.118005 35.537 0.342005 31 1.577ZM122.616 16.598C128.86 19.552 135.303 26.828 136.96 32.797C137.587 35.052 137.991 52.353 137.994 77.054L138 117.607L135.433 122.759C132.475 128.694 127.453 133.47 121.314 136.185C117.288 137.966 114.446 138.064 74.763 137.791L32.5 137.5L28 134.845C22.239 131.446 19.772 128.743 16.543 122.292L13.937 117.084L14.218 75.263L14.5 33.443L17.058 28.471C19.787 23.169 26.965 16.953 32.372 15.212C34.24 14.61 51.937 14.163 76.312 14.102L117.124 14L122.616 16.598ZM113.388 25.98C106.879 28.61 105.033 37.187 109.923 42.077C117.669 49.823 130.547 40.76 125.543 31.084C124.568 29.197 122.445 27.248 120.466 26.421C116.625 24.816 116.316 24.797 113.388 25.98ZM64.487 38.799C51.578 43.263 42.894 51.889 38.945 64.172C32.463 84.329 43.576 106.312 63.564 112.874C79.624 118.146 97.027 112.857 106.924 99.696C119.904 82.437 116.647 57.824 99.696 45.076C89.688 37.549 75.445 35.01 64.487 38.799ZM86.406 52.69C94.494 56.818 99.271 62.808 101.152 71.181C104.843 87.609 88.928 104.091 71.989 101.382C58.712 99.259 48.502 85.217 50.618 71.989C51.685 65.318 56.798 57.94 62.869 54.312C65.815 52.551 69.412 50.908 70.863 50.659C75.083 49.936 83.05 50.976 86.406 52.69Z" fill="white"/>
</svg>
