<svg width="152" height="67" viewBox="0 0 152 67" fill="none" xmlns="http://www.w3.org/2000/svg">
<path fill-rule="evenodd" clip-rule="evenodd" d="M85.413 0.883999C83.715 1.322 81.802 2.004 81.163 2.399C80.319 2.921 80 11.744 80 34.559V66L108.25 65.924C138.763 65.842 140.823 65.548 146.146 60.524C151.882 55.111 153.498 47.521 150.462 40.254C147.159 32.349 140.768 28.559 131.829 29.206C127.548 29.516 126 29.289 126 28.351C126 27.649 125.034 24.493 123.854 21.338C121.154 14.123 114.49 6.876 107.336 3.376C101.539 0.539999 91.268 -0.628001 85.413 0.883999ZM74.287 5.572C73.854 6.633 73.5 20.189 73.5 35.698C73.5 56.922 73.809 64.206 74.75 65.148C77.831 68.234 78.251 64.506 78.114 35.35C78.002 11.633 77.722 6.294 76.526 5.097C75.256 3.827 74.975 3.887 74.287 5.572ZM67.688 8.646C67.309 9.024 67 21.832 67 37.108C67 64.415 67.407 67.993 70.198 65.202C71.608 63.792 72.281 37.262 71.304 21.581C70.565 9.704 69.705 6.628 67.688 8.646ZM48.636 17.64C47.812 23.652 47.809 58.797 48.633 62.914C49.706 68.28 51.471 65.722 52.076 57.921C53.041 45.487 51.889 13 50.483 13C49.8 13 48.994 15.024 48.636 17.64ZM55.323 14.583C54.336 17.131 54.284 64.613 55.267 65.598C55.688 66.021 56.588 65.81 57.267 65.13C58.988 63.404 58.972 15.572 57.25 13.85C56.338 12.938 55.895 13.106 55.323 14.583ZM42.607 15.582C41.815 17.645 41.815 62.355 42.607 64.418C43.603 67.013 44.735 66.227 45.444 62.448C46.281 57.987 46.236 27.444 45.381 19.75C44.745 14.032 43.766 12.561 42.607 15.582ZM61.529 14.954C61.205 15.478 60.844 26.71 60.728 39.912C60.57 57.928 60.827 64.227 61.759 65.159C64.686 68.086 65.191 64.387 65.1 40.698C65.05 27.767 64.734 16.47 64.397 15.593C63.711 13.806 62.417 13.517 61.529 14.954ZM35.799 34.25C35.24 52.909 35.91 65.034 37.5 65.054C39.309 65.077 40.254 50.26 39.514 33.486C38.984 21.455 38.453 17 37.551 17C36.637 17 36.18 21.499 35.799 34.25ZM30.543 22.931C29.344 24.871 29.47 63.87 30.679 65.079C32.944 67.344 33.462 63.159 33.332 43.65C33.209 25.278 32.473 19.808 30.543 22.931ZM18.707 32C17.602 35.075 17.065 47.613 17.672 56.163C18.785 71.847 21.341 65.527 21.175 47.5C21.075 36.712 19.828 28.88 18.707 32ZM12.565 32.895C11.351 34.86 11.5 61.284 12.738 63.496C13.583 65.005 13.909 64.366 14.565 59.917C16.114 49.41 14.643 29.533 12.565 32.895ZM24.473 33.043C23.27 34.99 23.532 63.932 24.763 65.163C26.575 66.975 27.314 62.154 27.324 48.459C27.333 35.867 26.272 30.132 24.473 33.043ZM6.554 35.932C5.402 39.416 5.56 58.392 6.759 60.533C7.598 62.033 7.897 61.594 8.537 57.918C9.471 52.561 9.282 41.785 8.17 37C7.39 33.641 7.325 33.598 6.554 35.932ZM0.587001 44.265C-0.234999 49.752 0.863001 57.537 2.263 56.137C2.806 55.594 3.25 52.157 3.25 48.5C3.25 40.473 1.559 37.784 0.587001 44.265Z" fill="white"/>
</svg>
